<svg width="160" height="36" viewBox="0 0 160 36" fill="none" xmlns="http://www.w3.org/2000/svg">
<path d="M17.7273 14.4H14.1819C6.34608 14.4 0 7.9563 0 0H17.7273V14.4Z" fill="#F05B8A"/>
<path d="M31.909 14.3999V35.9999C24.0732 35.9999 17.7271 29.5562 17.7271 21.5999V14.3999H31.909Z" fill="#FFC649"/>
<path d="M31.909 14.4H17.7271V0L31.909 14.4Z" fill="#F04A2D"/>
<path d="M30.3501 6.78655L25.2256 1.58319C24.6496 0.998319 25.0568 0 25.8711 0H30.9857C31.4922 0 31.8994 0.413445 31.8994 0.927731V6.12101C31.9093 6.95798 30.9261 7.37143 30.3501 6.78655Z" fill="#FFC649"/>
<path d="M65.0983 4.90918V9.96953H57.5706V30.5776H52.5277V9.96953H45V4.90918H65.0983Z" fill="white"/>
<path d="M67.5393 21.5753V12.243H72.5821V21.502C72.5821 22.3698 72.7587 23.1582 73.112 23.8672C73.4652 24.5761 73.9586 25.1445 74.592 25.5723C75.2375 25.9879 75.9806 26.1957 76.8211 26.1957C77.6615 26.1957 78.368 25.9879 78.9405 25.5723C79.5252 25.1445 79.9698 24.5761 80.2743 23.8672C80.5788 23.1582 80.7311 22.3698 80.7311 21.502V12.243H85.774V30.5776H80.7311V28.6892C80.1586 29.3859 79.4704 29.9604 78.6664 30.4126C77.8747 30.8649 76.9672 31.091 75.944 31.091C74.2144 31.091 72.7222 30.6632 71.4676 29.8076C70.2251 28.952 69.2629 27.803 68.5807 26.3607C67.8986 24.9183 67.5514 23.3232 67.5393 21.5753Z" fill="white"/>
<path d="M100.286 17.3034H96.9976V30.5776H91.9548V17.3034H89.4333V12.243H91.9548V6.48596H96.9976V12.243H100.286V17.3034Z" fill="white"/>
<path d="M103.769 21.5753V12.243H108.812V21.502C108.812 22.3698 108.989 23.1582 109.342 23.8672C109.695 24.5761 110.188 25.1445 110.822 25.5723C111.467 25.9879 112.21 26.1957 113.051 26.1957C113.891 26.1957 114.598 25.9879 115.17 25.5723C115.755 25.1445 116.2 24.5761 116.504 23.8672C116.809 23.1582 116.961 22.3698 116.961 21.502V12.243H122.004V30.5776H116.961V28.6892C116.388 29.3859 115.7 29.9604 114.896 30.4126C114.105 30.8649 113.197 31.091 112.174 31.091C110.444 31.091 108.952 30.6632 107.697 29.8076C106.455 28.952 105.493 27.803 104.811 26.3607C104.128 24.9183 103.781 23.3232 103.769 21.5753Z" fill="white"/>
<path d="M137.96 17.4134C137.631 17.1689 137.265 16.9795 136.863 16.845C136.461 16.6983 136.017 16.625 135.53 16.625C134.701 16.625 133.995 16.8389 133.41 17.2667C132.838 17.6823 132.399 18.2446 132.095 18.9535C131.802 19.6624 131.656 20.4508 131.656 21.3187V30.5776H126.577V12.243H131.62V14.1315C132.204 13.4226 132.892 12.8542 133.684 12.4264C134.488 11.9863 135.402 11.7663 136.425 11.7663C136.839 11.7663 137.241 11.7785 137.631 11.803C138.021 11.8152 138.398 11.8763 138.764 11.9863L137.96 17.4134Z" fill="white"/>
<path d="M159.545 21.2086V30.5776H154.503V21.282C154.503 20.4264 154.326 19.6441 153.973 18.9352C153.619 18.2262 153.12 17.6578 152.474 17.23C151.841 16.8022 151.104 16.5883 150.264 16.5883C149.435 16.5883 148.729 16.8022 148.144 17.23C147.56 17.6578 147.115 18.2262 146.81 18.9352C146.506 19.6441 146.354 20.4264 146.354 21.282V30.5776H141.311V12.243H146.354V14.1315C146.938 13.4103 147.627 12.8297 148.418 12.3897C149.222 11.9497 150.136 11.7297 151.159 11.7297C152.876 11.7297 154.356 12.1575 155.599 13.0131C156.853 13.8687 157.822 15.0177 158.504 16.46C159.186 17.8901 159.533 19.473 159.545 21.2086Z" fill="white"/>
</svg>
